<svg xmlns="http://www.w3.org/2000/svg" viewBox="0 0 64 64" id="deadline">
  <path d="M36,5a26.81,26.81,0,0,0-18.41,7.27,27.88,27.88,0,0,0-2.86,3.11l1.58,1.24A25,25,0,1,1,19,50.27l-1.36,1.46A27,27,0,1,0,36,5Z"></path>
  <rect width="11" height="2" x="10" y="23"></rect>
  <rect width="16" height="2" x="9" y="29"></rect>
  <rect width="16" height="2" x="9" y="35"></rect>
  <rect width="2" height="2" x="5" y="29"></rect>
  <rect width="2" height="2" x="1" y="29"></rect>
  <rect width="2" height="2" x="3" y="20"></rect>
  <rect width="2" height="2" x="1" y="16"></rect>
  <rect width="11" height="2" x="10" y="41"></rect>
  <rect width="2" height="2" x="3" y="44"></rect>
  <rect width="2" height="2" x="1" y="48"></rect>
  <rect width="2" height="2" x="5" y="35"></rect>
  <rect width="2" height="2" x="1" y="35"></rect>
  <rect width="2" height="2" x="6" y="23"></rect>
  <rect width="2" height="2" x="6" y="41"></rect>
  <path d="M35,18V32a1,1,0,0,0,.39.79l17,13,1.22-1.58L37,31.51V18Z"></path>
</svg>
